<svg xmlns="http://www.w3.org/2000/svg" version="1.1" xmlns:xlink="http://www.w3.org/1999/xlink" xmlns:svgjs="http://svgjs.dev/svgjs" width="100%" height="100%" viewBox="0 0 1000 600"><rect width="1000" height="600" x="0" y="0" fill="white"/><g><circle r="166.66666666666666" cx="1047.5330607096353" cy="819.1181647142058" fill="grey" transform="matrix(0.19834052581419606,0,0,0.19834052581419603,-39.851675207970146,137.53567846555427)"/><path d="M906.7822380797521 761.5661808498264Q892.2811682059399 761.5661808498264 880.0850973663956 768.5978867644919Q867.9182037298167 775.6295926791574 860.7697890032896 788.6426252017334Q853.6213742767624 801.6848349272748 853.6213742767624 819.1036250976288L853.6213742767624 819.1036250976288Q853.6213742767624 835.909694005709 860.6530801914279 848.8351949193886Q867.6847861060934 861.7606958330684 879.9975657574994 868.9091105595955Q892.2811682059399 876.0575252861228 907.5991997627838 876.0575252861228L907.5991997627838 876.0575252861228Q934.0921000553825 876.0575252861228 951.5108902257364 862.4025942983076L951.5108902257364 862.4025942983076L951.5108902257364 834.450833857438L905.2942007285159 834.450833857438L905.2942007285159 817.8490053701158L971.2638566333237 817.8490053701158L971.2638566333237 871.4183500146214Q960.3515827242578 881.5136622406558 943.7497542369355 887.8159380811858Q927.1479257496133 894.1182139217159 907.5991997627838 894.1182139217159L907.5991997627838 894.1182139217159Q885.1327534794127 894.1182139217159 867.801494917955 884.5480913490591Q850.4702363564974 875.0071459793678 840.8125821749443 857.8801278386679Q831.1549279933913 840.7531096979682 831.1549279933913 819.1036250976288L831.1549279933913 819.1036250976288Q831.1549279933913 797.6875581210127 840.8125821749443 780.5605399803129Q850.4702363564974 763.4335218396131 866.6344067993383 753.7758676580601Q882.8277544451448 744.1182134765071 901.9388223874929 744.1182134765071L901.9388223874929 744.1182134765071Q917.898752409576 744.1182134765071 930.6200129024978 749.6910592429017Q943.3120961924542 755.2639050092964 952.1527886909756 764.7173187700914L952.1527886909756 764.7173187700914L952.1527886909756 747.0651109760142L971.2638566333237 747.0651109760142L971.2638566333237 791.7937631219984L957.6089256455085 792.8441424287535Q949.8477896567076 778.7807305994224 937.2432379756475 770.1734557246244Q924.6386862945874 761.5661808498264 906.7822380797521 761.5661808498264L906.7822380797521 761.5661808498264ZM1062.6468563210096 809.6502113368336Q1090.3651991381557 817.4405245286 1104.4577881704522 827.9443175961501Q1118.5211999997832 838.4481106637002 1118.5211999997832 855.8669008340541L1118.5211999997832 855.8669008340541Q1118.5211999997832 867.2168327876013 1112.335632971115 875.940816474261Q1106.120888739481 884.6648001609208 1095.2086148304152 889.2747982294567Q1084.2963409213494 893.9139735009579 1070.6414099335339 893.9139735009579L1070.6414099335339 893.9139735009579Q1055.7026820152405 893.9139735009579 1042.2811686511486 887.6116976604279Q1028.8304780840913 881.3094218198978 1017.4805461305442 869.9594898663506L1017.4805461305442 869.9594898663506L1017.4805461305442 890.9670760014508L998.3694781881961 890.9670760014508L998.3694781881961 842.4453874699624L1010.536371824775 841.8034890047231Q1021.6820633575643 857.9676594475642 1037.6419933796474 867.2168327876013Q1053.6019234017303 876.4660061276386 1069.3576130030556 876.4660061276386L1069.3576130030556 876.4660061276386Q1081.1452030010842 876.4660061276386 1088.5853897572656 871.4183500146214Q1096.054753716412 866.3706939016042 1096.054753716412 857.7634190268063L1096.054753716412 857.7634190268063Q1096.054753716412 848.3100052660112 1085.5509606488622 841.4825397721036Q1075.047167581312 834.655074278196 1049.838064219192 828.148558016908L1049.838064219192 828.148558016908Q1023.5785815503164 821.2043837111388 1011.3825107107721 809.9711605694533Q999.2156170741932 798.7379374277677 999.2156170741932 782.3403493612034L999.2156170741932 782.3403493612034Q999.2156170741932 771.0195946106215 1005.4011841028616 762.2956109239619Q1011.58675113153 753.5716272373022 1022.0905441990801 748.8449203569046Q1032.5943372666302 744.1182134765071 1044.9946485269325 744.1182134765071L1044.9946485269325 744.1182134765071Q1074.201028695315 744.1182134765071 1092.2617173309081 765.5342804531232L1092.2617173309081 765.5342804531232L1092.2617173309081 747.0651109760142L1111.3727852732563 747.0651109760142L1111.3727852732563 794.9449010422635L1099.6143724781932 795.5867995075027Q1090.8028571826371 778.7807305994224 1077.994065080819 770.1734557246244Q1065.1560957760357 761.5661808498264 1049.838064219192 761.5661808498264L1049.838064219192 761.5661808498264Q1037.4377529588896 761.5661808498264 1029.5599081582268 766.9056089924977Q1021.6820633575643 772.2742143381345 1021.6820633575643 781.2899700544483L1021.6820633575643 781.2899700544483Q1021.6820633575643 790.5391433944856 1031.252185930221 797.1623684676351Q1040.7931312999126 803.7855935407848 1062.6468563210096 809.6502113368336L1062.6468563210096 809.6502113368336ZM1208.0076814947174 809.6502113368336Q1235.755201514829 817.4405245286 1249.81861334416 827.9443175961501Q1263.9112023764565 838.4481106637002 1263.9112023764565 855.8669008340541L1263.9112023764565 855.8669008340541Q1263.9112023764565 867.2168327876013 1257.6964581448224 875.940816474261Q1251.5108911161542 884.6648001609208 1240.5694400041225 889.2747982294567Q1229.6571660950567 893.9139735009579 1216.0022351072416 893.9139735009579L1216.0022351072416 893.9139735009579Q1201.0926843919133 893.9139735009579 1187.6419938248564 887.6116976604279Q1174.191303257799 881.3094218198978 1162.8413713042519 869.9594898663506L1162.8413713042519 869.9594898663506L1162.8413713042519 890.9670760014508L1143.7303033619037 890.9670760014508L1143.7303033619037 842.4453874699624L1155.9263742014477 841.8034890047231Q1167.0428885312717 857.9676594475642 1183.0319957563202 867.2168327876013Q1198.9919257784036 876.4660061276386 1214.7476153797288 876.4660061276386L1214.7476153797288 876.4660061276386Q1226.5060281747915 876.4660061276386 1233.9753921339384 871.4183500146214Q1241.4155788901198 866.3706939016042 1241.4155788901198 857.7634190268063L1241.4155788901198 857.7634190268063Q1241.4155788901198 848.3100052660112 1230.9117858225695 841.4825397721036Q1220.4079927550197 834.655074278196 1195.1988893928992 828.148558016908L1195.1988893928992 828.148558016908Q1168.9394067240241 821.2043837111388 1156.772513087445 809.9711605694533Q1144.5764422479006 798.7379374277677 1144.5764422479006 782.3403493612034L1144.5764422479006 782.3403493612034Q1144.5764422479006 771.0195946106215 1150.7620092765692 762.2956109239619Q1156.9767535082028 753.5716272373022 1167.4805465757531 748.8449203569046Q1177.984339643303 744.1182134765071 1190.3846509036052 744.1182134765071L1190.3846509036052 744.1182134765071Q1219.5618538690223 744.1182134765071 1237.651719707581 765.5342804531232L1237.651719707581 765.5342804531232L1237.651719707581 747.0651109760142L1256.7627876499291 747.0651109760142L1256.7627876499291 794.9449010422635L1245.004374854866 795.5867995075027Q1236.163682356345 778.7807305994224 1223.3548902545267 770.1734557246244Q1210.5460981527085 761.5661808498264 1195.1988893928992 761.5661808498264L1195.1988893928992 761.5661808498264Q1182.798578132597 761.5661808498264 1174.9207333319346 766.9056089924977Q1167.0428885312717 772.2742143381345 1167.0428885312717 781.2899700544483L1167.0428885312717 781.2899700544483Q1167.0428885312717 790.5391433944856 1176.6130111039288 797.1623684676351Q1186.1831336765854 803.7855935407848 1208.0076814947174 809.6502113368336L1208.0076814947174 809.6502113368336Z " fill="darkgreen" transform="matrix(0.19834052581419606,0,0,0.19834052581419603,-39.851675207970146,137.53567846555427)"/><path d="M1373.1603813902989 761.5661808498264Q1358.6593115164867 761.5661808498264 1346.4632406769424 768.5978867644919Q1334.2963470403636 775.6295926791574 1327.1479323138362 788.6426252017334Q1319.9995175873091 801.6848349272748 1319.9995175873091 819.1036250976288L1319.9995175873091 819.1036250976288Q1319.9995175873091 835.909694005709 1327.0312235019746 848.8351949193886Q1334.0629294166401 861.7606958330684 1346.375709068046 868.9091105595955Q1358.6593115164867 876.0575252861228 1373.9773430733305 876.0575252861228L1373.9773430733305 876.0575252861228Q1400.4702433659293 876.0575252861228 1417.8890335362833 862.4025942983076L1417.8890335362833 862.4025942983076L1417.8890335362833 834.450833857438L1371.6723440390626 834.450833857438L1371.6723440390626 817.8490053701158L1437.6419999438706 817.8490053701158L1437.6419999438706 871.4183500146214Q1426.7297260348046 881.5136622406558 1410.1278975474822 887.8159380811858Q1393.52606906016 894.1182139217159 1373.9773430733305 894.1182139217159L1373.9773430733305 894.1182139217159Q1351.5108967899594 894.1182139217159 1334.1796382285017 884.5480913490591Q1316.8483796670441 875.0071459793678 1307.1907254854912 857.8801278386679Q1297.533071303938 840.7531096979682 1297.533071303938 819.1036250976288L1297.533071303938 819.1036250976288Q1297.533071303938 797.6875581210127 1307.1907254854912 780.5605399803129Q1316.8483796670441 763.4335218396131 1333.012550109885 753.7758676580601Q1349.2058977556915 744.1182134765071 1368.3169656980397 744.1182134765071L1368.3169656980397 744.1182134765071Q1384.2768957201226 744.1182134765071 1396.9981562130445 749.6910592429017Q1409.6902395030008 755.2639050092964 1418.5309320015224 764.7173187700914L1418.5309320015224 764.7173187700914L1418.5309320015224 747.0651109760142L1437.6419999438706 747.0651109760142L1437.6419999438706 791.7937631219984L1423.9870689560553 792.8441424287535Q1416.2259329672545 778.7807305994224 1403.6213812861943 770.1734557246244Q1391.016829605134 761.5661808498264 1373.1603813902989 761.5661808498264L1373.1603813902989 761.5661808498264ZM1614.1057234787124 864.9118337533334L1624.8137569670205 878.9752455826645Q1611.5964840236866 894.1182139217159 1594.1485166503674 894.1182139217159L1594.1485166503674 894.1182139217159Q1575.8835875940163 894.1182139217159 1563.3665675218524 880.8717637754165Q1550.8787246526538 867.6544908320827 1543.0884114608875 840.111211232729L1543.0884114608875 840.111211232729L1539.7330331198646 829.6074181651788L1509.7096912684503 829.6074181651788L1509.7096912684503 873.7233490488893L1536.1734143580836 873.7233490488893L1536.1734143580836 891.1713164222087L1460.9545851132386 891.1713164222087L1460.9545851132386 873.9567666726127L1488.060206668111 873.9567666726127L1488.060206668111 764.4839011463681L1460.9545851132386 764.4839011463681L1460.9545851132386 747.0651109760142L1544.5764488121238 747.0651109760142Q1569.1436537090049 747.0651109760142 1583.4404831620593 758.1816253058381Q1597.708135412148 769.3273168386274 1597.708135412148 788.4383847809755L1597.708135412148 788.4383847809755Q1597.708135412148 804.1940743823006 1587.5252915772176 815.0188166824704Q1577.342447742287 825.8435589826402 1558.8441010622125 828.5570388584239L1558.8441010622125 828.5570388584239L1562.637137447717 838.8565915052161Q1569.1436537090049 857.3549381852904 1577.138207321529 865.7579726393305Q1585.103583731088 874.1610070933707 1595.1988959571222 874.1610070933707L1595.1988959571222 874.1610070933707Q1601.5011717976524 874.1610070933707 1605.9069294454303 871.6225904353794Q1610.3126870932083 869.1133509803535 1614.1057234787124 864.9118337533334L1614.1057234787124 864.9118337533334ZM1509.7096912684503 764.4839011463681L1509.7096912684503 813.2390073015799L1545.1891700743975 813.2390073015799Q1558.6398606414548 813.2390073015799 1567.480553139976 806.6157822284304Q1576.292068435532 799.9925571552806 1576.292068435532 788.4383847809755L1576.292068435532 788.4383847809755Q1576.292068435532 777.3218704511517 1567.5680847488723 770.9028857987598Q1558.8441010622125 764.4839011463681 1545.1891700743975 764.4839011463681L1545.1891700743975 764.4839011463681L1509.7096912684503 764.4839011463681ZM1770.4079997644515 793.2818004732347L1751.0635141983798 793.2818004732347L1751.0635141983798 764.4839011463681L1676.282342998016 764.4839011463681L1676.282342998016 810.4963502228308L1709.4859999726607 810.4963502228308L1709.4859999726607 790.9768014389667L1726.2920688807408 790.9768014389667L1726.2920688807408 846.0050062317432L1709.4859999726607 846.0050062317432L1709.4859999726607 826.4562802449138L1676.282342998016 826.4562802449138L1676.282342998016 873.7233490488893L1751.0635141983798 873.7233490488893L1751.0635141983798 844.9546269249881L1770.4079997644515 844.9546269249881L1770.4079997644515 891.1713164222087L1627.9648948872855 891.1713164222087L1627.9648948872855 873.7233490488893L1654.8662760214 873.7233490488893L1654.8662760214 764.4839011463681L1627.9648948872855 764.4839011463681L1627.9648948872855 747.0651109760142L1770.4079997644515 747.0651109760142L1770.4079997644515 793.2818004732347ZM1936.1636898109853 793.2818004732347L1916.8192042449139 793.2818004732347L1916.8192042449139 764.4839011463681L1842.0380330445503 764.4839011463681L1842.0380330445503 810.4963502228308L1875.2416900191945 810.4963502228308L1875.2416900191945 790.9768014389667L1892.0477589272748 790.9768014389667L1892.0477589272748 846.0050062317432L1875.2416900191945 846.0050062317432L1875.2416900191945 826.4562802449138L1842.0380330445503 826.4562802449138L1842.0380330445503 873.7233490488893L1916.8192042449139 873.7233490488893L1916.8192042449139 844.9546269249881L1936.1636898109853 844.9546269249881L1936.1636898109853 891.1713164222087L1793.7205849338195 891.1713164222087L1793.7205849338195 873.7233490488893L1820.6219660679342 873.7233490488893L1820.6219660679342 764.4839011463681L1793.7205849338195 764.4839011463681L1793.7205849338195 747.0651109760142L1936.1636898109853 747.0651109760142L1936.1636898109853 793.2818004732347ZM2145.1891718552333 747.0651109760142L2145.1891718552333 764.4839011463681L2118.929689186358 764.4839011463681L2118.929689186358 892.4259361497217L2108.1924784950843 892.6301765704795L2007.1518246258447 777.7303512926675L2007.1518246258447 873.7233490488893L2033.0028264532043 873.7233490488893L2033.0028264532043 891.1713164222087L1959.4762749803535 891.1713164222087L1959.4762749803535 873.7233490488893L1986.581896535226 873.7233490488893L1986.581896535226 764.4839011463681L1959.4762749803535 764.4839011463681L1959.4762749803535 747.0651109760142L2007.1518246258447 747.0651109760142L2098.739064734289 853.5619017997863L2098.739064734289 764.4839011463681L2071.6626203823816 764.4839011463681L2071.6626203823816 747.0651109760142L2145.1891718552333 747.0651109760142ZM2290.54999702894 809.6502113368336Q2318.2683398460867 817.4405245286 2332.3609288783828 827.9443175961501Q2346.424340707714 838.4481106637002 2346.424340707714 855.8669008340541L2346.424340707714 855.8669008340541Q2346.424340707714 867.2168327876013 2340.238773679045 875.940816474261Q2334.0240294474115 884.6648001609208 2323.111755538346 889.2747982294567Q2312.19948162928 893.9139735009579 2298.5445506414644 893.9139735009579L2298.5445506414644 893.9139735009579Q2283.6058227231715 893.9139735009579 2270.1843093590796 887.6116976604279Q2256.733618792022 881.3094218198978 2245.383686838475 869.9594898663506L2245.383686838475 869.9594898663506L2245.383686838475 890.9670760014508L2226.272618896127 890.9670760014508L2226.272618896127 842.4453874699624L2238.4395125327055 841.8034890047231Q2249.5852040654945 857.9676594475642 2265.545134087578 867.2168327876013Q2281.5050641096614 876.4660061276386 2297.260753710986 876.4660061276386L2297.260753710986 876.4660061276386Q2309.0483437090143 876.4660061276386 2316.488530465196 871.4183500146214Q2323.957894424343 866.3706939016042 2323.957894424343 857.7634190268063L2323.957894424343 857.7634190268063Q2323.957894424343 848.3100052660112 2313.4541013567923 841.4825397721036Q2302.9503082892425 834.655074278196 2277.7412049271225 828.148558016908L2277.7412049271225 828.148558016908Q2251.481722258247 821.2043837111388 2239.2856514187024 809.9711605694533Q2227.118757782124 798.7379374277677 2227.118757782124 782.3403493612034L2227.118757782124 782.3403493612034Q2227.118757782124 771.0195946106215 2233.3043248107924 762.2956109239619Q2239.489891839461 753.5716272373022 2249.993684907011 748.8449203569046Q2260.4974779745608 744.1182134765071 2272.897789234863 744.1182134765071L2272.897789234863 744.1182134765071Q2302.1041694032456 744.1182134765071 2320.1648580388382 765.5342804531232L2320.1648580388382 765.5342804531232L2320.1648580388382 747.0651109760142L2339.2759259811864 747.0651109760142L2339.2759259811864 794.9449010422635L2327.5175131861233 795.5867995075027Q2318.705997890568 778.7807305994224 2305.8972057887495 770.1734557246244Q2293.059236483966 761.5661808498264 2277.7412049271225 761.5661808498264L2277.7412049271225 761.5661808498264Q2265.34089366682 761.5661808498264 2257.463048866157 766.9056089924977Q2249.5852040654945 772.2742143381345 2249.5852040654945 781.2899700544483L2249.5852040654945 781.2899700544483Q2249.5852040654945 790.5391433944856 2259.1553266381516 797.1623684676351Q2268.6962720078427 803.7855935407848 2290.54999702894 809.6502113368336L2290.54999702894 809.6502113368336ZM2447.2607541561947 747.0651109760142Q2464.066823064275 747.0651109760142 2476.788083557197 752.4045391186855Q2489.4801668471537 757.7731444643223 2496.4243411529233 767.8684566903565Q2503.368515458692 777.9345917134253 2503.368515458692 791.7937631219984L2503.368515458692 791.7937631219984Q2503.368515458692 813.034766880822 2488.2255471196404 825.3183693292626Q2473.1117559835548 837.6019717777032 2447.4649945769524 837.6019717777032L2447.4649945769524 837.6019717777032L2413.8528567607927 837.6019717777032L2413.8528567607927 873.7233490488893L2442.650756087659 873.7233490488893L2442.650756087659 891.1713164222087L2365.3311682293042 891.1713164222087L2365.3311682293042 873.7233490488893L2392.4367897841767 873.7233490488893L2392.4367897841767 764.4839011463681L2365.3311682293042 764.4839011463681L2365.3311682293042 747.0651109760142L2447.2607541561947 747.0651109760142ZM2446.414615270198 820.1540044043838Q2461.9660644507658 820.1540044043838 2471.9446678649383 813.5599565341995Q2481.923271279111 806.9367314610499 2481.923271279111 791.5895227012405L2481.923271279111 791.5895227012405Q2481.923271279111 777.5261108719095 2471.8571362560415 771.0195946106215Q2461.761824030007 764.4839011463681 2446.0061344286823 764.4839011463681L2446.0061344286823 764.4839011463681L2413.8528567607927 764.4839011463681L2413.8528567607927 819.9497639836259L2446.414615270198 820.1540044043838ZM2660.283513006704 873.7233490488893L2682.749959290076 873.7233490488893L2682.749959290076 891.1713164222087L2614.0668235094836 891.1713164222087L2614.0668235094836 873.7233490488893L2637.58364909961 873.7233490488893L2624.162135735518 840.111211232729L2561.956339013249 840.111211232729L2548.7390660699157 873.7233490488893L2573.9481694320357 873.7233490488893L2573.9481694320357 891.1713164222087L2505.67351449296 891.1713164222087L2505.67351449296 873.7233490488893L2528.1399607763315 873.7233490488893L2574.998548738791 764.2796607256103L2553.3490641384515 764.2796607256103L2553.3490641384515 747.0651109760142L2634.432511179345 747.0651109760142L2634.432511179345 764.2796607256103L2613.016444202729 764.2796607256103L2660.283513006704 873.7233490488893ZM2568.2586148537794 824.3555216314038L2617.8598598949884 824.3555216314038L2593.9053762603808 764.2796607256103L2592.213098488387 764.2796607256103L2568.2586148537794 824.3555216314038ZM2812.996993327697 848.5142456867691L2827.089582359994 860.3018356847975Q2816.790029713201 875.4156268208835 2800.9176313000144 884.6648001609208Q2785.0744100897928 893.9139735009579 2763.424925489454 893.9139735009579L2763.424925489454 893.9139735009579Q2742.8549973988347 893.9139735009579 2725.727979258135 884.3438509283012Q2708.600961117435 874.7737283556444 2698.7390665151243 857.7634190268063Q2688.8479947098476 840.7531096979682 2688.8479947098476 819.3370427213521L2688.8479947098476 819.3370427213521Q2688.8479947098476 797.2790772794968 2698.5056488914006 780.1520591387971Q2708.1924802759195 763.0250409980973 2724.3566507187606 753.5716272373022Q2740.520821161601 744.1182134765071 2759.2234082624336 744.1182134765071L2759.2234082624336 744.1182134765071Q2774.366376601485 744.1182134765071 2786.0080805846865 749.5743504310401Q2797.6789617708537 755.030487385573 2805.644338180412 764.9215591908494L2805.644338180412 764.9215591908494L2805.8777558041356 747.0651109760142L2825.3973045879993 747.0651109760142L2825.3973045879993 793.8945217355085L2811.538133179426 795.1783186659868Q2796.4243420433404 761.5661808498264 2762.3745461826984 761.5661808498264L2762.3745461826984 761.5661808498264Q2748.7196151948838 761.5661808498264 2737.0779112116825 768.5978867644919Q2725.4070300255153 775.6295926791574 2718.3753241108498 788.7593340135951Q2711.3436181961843 801.8890753480327 2711.3436181961843 819.1036250976288L2711.3436181961843 819.1036250976288Q2711.3436181961843 835.5012131641931 2718.258615298988 848.4267140778728Q2725.2027896047575 861.3522149915526 2737.0779112116825 868.7048701388377Q2748.9238556156415 876.0575252861228 2763.424925489454 876.0575252861228L2763.424925489454 876.0575252861228Q2780.435234818292 876.0575252861228 2792.310356425216 868.7048701388377Q2804.185478032141 861.3522149915526 2812.996993327697 848.5142456867691L2812.996993327697 848.5142456867691ZM2986.9514774075133 793.2818004732347L2967.6361690444073 793.2818004732347L2967.6361690444073 764.4839011463681L2892.8258206410783 764.4839011463681L2892.8258206410783 810.4963502228308L2926.0294776157225 810.4963502228308L2926.0294776157225 790.9768014389667L2942.835546523803 790.9768014389667L2942.835546523803 846.0050062317432L2926.0294776157225 846.0050062317432L2926.0294776157225 826.4562802449138L2892.8258206410783 826.4562802449138L2892.8258206410783 873.7233490488893L2967.6361690444073 873.7233490488893L2967.6361690444073 844.9546269249881L2986.9514774075133 844.9546269249881L2986.9514774075133 891.1713164222087L2844.5083725303475 891.1713164222087L2844.5083725303475 873.7233490488893L2871.409753664462 873.7233490488893L2871.409753664462 764.4839011463681L2844.5083725303475 764.4839011463681L2844.5083725303475 747.0651109760142L2986.9514774075133 747.0651109760142L2986.9514774075133 793.2818004732347ZM3078.7429579367154 809.6502113368336Q3106.490477956827 817.4405245286 3120.553889786158 827.9443175961501Q3134.646478818454 838.4481106637002 3134.646478818454 855.8669008340541L3134.646478818454 855.8669008340541Q3134.646478818454 867.2168327876013 3128.4317345868203 875.940816474261Q3122.2461675581526 884.6648001609208 3111.3047164461204 889.2747982294567Q3100.392442537055 893.9139735009579 3086.7375115492396 893.9139735009579L3086.7375115492396 893.9139735009579Q3071.8279608339117 893.9139735009579 3058.377270266854 887.6116976604279Q3044.926579699797 881.3094218198978 3033.5766477462503 869.9594898663506L3033.5766477462503 869.9594898663506L3033.5766477462503 890.9670760014508L3014.465579803901 890.9670760014508L3014.465579803901 842.4453874699624L3026.6616506434457 841.8034890047231Q3037.7781649732697 857.9676594475642 3053.767272198318 867.2168327876013Q3069.7272022204015 876.4660061276386 3085.4828918217263 876.4660061276386L3085.4828918217263 876.4660061276386Q3097.2413046167894 876.4660061276386 3104.7106685759363 871.4183500146214Q3112.1508553321173 866.3706939016042 3112.1508553321173 857.7634190268063L3112.1508553321173 857.7634190268063Q3112.1508553321173 848.3100052660112 3101.6470622645675 841.4825397721036Q3091.1432691970176 834.655074278196 3065.9341658348967 828.148558016908L3065.9341658348967 828.148558016908Q3039.674683166022 821.2043837111388 3027.5077895294426 809.9711605694533Q3015.311718689899 798.7379374277677 3015.311718689899 782.3403493612034L3015.311718689899 782.3403493612034Q3015.311718689899 771.0195946106215 3021.4972857185676 762.2956109239619Q3027.712029950201 753.5716272373022 3038.215823017751 748.8449203569046Q3048.719616085301 744.1182134765071 3061.119927345603 744.1182134765071L3061.119927345603 744.1182134765071Q3090.29713031102 744.1182134765071 3108.3869961495793 765.5342804531232L3108.3869961495793 765.5342804531232L3108.3869961495793 747.0651109760142L3127.4980640919275 747.0651109760142L3127.4980640919275 794.9449010422635L3115.7396512968644 795.5867995075027Q3106.8989587983424 778.7807305994224 3094.0901666965246 770.1734557246244Q3081.281374594706 761.5661808498264 3065.9341658348967 761.5661808498264L3065.9341658348967 761.5661808498264Q3053.5338545745944 761.5661808498264 3045.656009773932 766.9056089924977Q3037.7781649732697 772.2742143381345 3037.7781649732697 781.2899700544483L3037.7781649732697 781.2899700544483Q3037.7781649732697 790.5391433944856 3047.3482875459267 797.1623684676351Q3056.918410118584 803.7855935407848 3078.7429579367154 809.6502113368336L3078.7429579367154 809.6502113368336ZM3287.5641995602045 809.6502113368336Q3315.311719580316 817.4405245286 3329.375131409647 827.9443175961501Q3343.438543238978 838.4481106637002 3343.438543238978 855.8669008340541L3343.438543238978 855.8669008340541Q3343.438543238978 867.2168327876013 3337.2529762103095 875.940816474261Q3331.067409181641 884.6648001609208 3320.1259580696096 889.2747982294567Q3309.2136841605443 893.9139735009579 3295.5587531727288 893.9139735009579L3295.5587531727288 893.9139735009579Q3280.649202457401 893.9139735009579 3267.198511890343 887.6116976604279Q3253.747821323286 881.3094218198978 3242.3978893697395 869.9594898663506L3242.3978893697395 869.9594898663506L3242.3978893697395 890.9670760014508L3223.2868214273913 890.9670760014508L3223.2868214273913 842.4453874699624L3235.482892266936 841.8034890047231Q3246.599406596759 857.9676594475642 3262.5593366188423 867.2168327876013Q3278.5484438438907 876.4660061276386 3294.3041334452164 876.4660061276386L3294.3041334452164 876.4660061276386Q3306.0625462402795 876.4660061276386 3313.5027329964605 871.4183500146214Q3320.9720969556074 866.3706939016042 3320.9720969556074 857.7634190268063L3320.9720969556074 857.7634190268063Q3320.9720969556074 848.3100052660112 3310.4683038880567 841.4825397721036Q3299.964510820507 834.655074278196 3274.755407458387 828.148558016908L3274.755407458387 828.148558016908Q3248.4959247895113 821.2043837111388 3236.2998539499677 809.9711605694533Q3224.132960313388 798.7379374277677 3224.132960313388 782.3403493612034L3224.132960313388 782.3403493612034Q3224.132960313388 771.0195946106215 3230.3185273420568 762.2956109239619Q3236.5332715736904 753.5716272373022 3247.0370646412402 748.8449203569046Q3257.540857708791 744.1182134765071 3269.9119917661274 744.1182134765071L3269.9119917661274 744.1182134765071Q3299.11837193451 744.1182134765071 3317.1790605701026 765.5342804531232L3317.1790605701026 765.5342804531232L3317.1790605701026 747.0651109760142L3336.3193057154167 747.0651109760142L3336.3193057154167 794.9449010422635L3324.5317157173877 795.5867995075027Q3315.7202004218325 778.7807305994224 3302.911408320014 770.1734557246244Q3290.102616218196 761.5661808498264 3274.755407458387 761.5661808498264L3274.755407458387 761.5661808498264Q3262.3550961980845 761.5661808498264 3254.4772513974212 766.9056089924977Q3246.599406596759 772.2742143381345 3246.599406596759 781.2899700544483L3246.599406596759 781.2899700544483Q3246.599406596759 790.5391433944856 3256.169529169416 797.1623684676351Q3265.710474539107 803.7855935407848 3287.5641995602045 809.6502113368336L3287.5641995602045 809.6502113368336ZM3440.3068570841624 893.9139735009579Q3419.2992709490627 893.9139735009579 3402.172252808363 884.3438509283012Q3385.045234667663 874.7737283556444 3375.270871674248 857.7634190268063Q3365.4965086808334 840.7531096979682 3365.4965086808334 819.1036250976288L3365.4965086808334 819.1036250976288Q3365.4965086808334 797.2790772794968 3375.270871674248 780.2395907476933Q3385.045234667663 763.2292814188552 3402.172252808363 753.6883360491638Q3419.2992709490627 744.1182134765071 3440.3068570841624 744.1182134765071L3440.3068570841624 744.1182134765071Q3461.0810255955394 744.1182134765071 3478.2080437362392 753.6883360491638Q3495.335061876939 763.2292814188552 3505.109424870354 780.356299559555Q3514.8837878637687 797.4833177002547 3514.8837878637687 819.1036250976288L3514.8837878637687 819.1036250976288Q3514.8837878637687 840.7531096979682 3505.109424870354 857.7634190268063Q3495.335061876939 874.7737283556444 3478.2080437362392 884.3438509283012Q3461.0810255955394 893.9139735009579 3440.3068570841624 893.9139735009579L3440.3068570841624 893.9139735009579ZM3440.3068570841624 875.8241076623995Q3455.420648220248 875.8241076623995 3467.295769827173 868.588161326976Q3479.170891434098 861.3522149915526 3485.764939304283 848.4267140778728Q3492.388164377432 835.5012131641931 3492.388164377432 819.1036250976288L3492.388164377432 819.1036250976288Q3492.388164377432 802.5309738132719 3485.764939304283 789.6054728995922Q3479.170891434098 776.6799719859125 3467.295769827173 769.444025650489Q3455.420648220248 762.1789021121002 3440.3068570841624 762.1789021121002L3440.3068570841624 762.1789021121002Q3424.959648324353 762.1789021121002 3412.9969951085322 769.444025650489Q3401.0051646897455 776.6799719859125 3394.498648428458 789.6930045084885Q3387.99213216717 802.7352142340299 3387.99213216717 819.1036250976288L3387.99213216717 819.1036250976288Q3387.99213216717 835.7054535849511 3394.498648428458 848.6309544986308Q3401.0051646897455 861.5564554123105 3412.8802862966704 868.7048701388377Q3424.7554079035954 875.8241076623995 3440.3068570841624 875.8241076623995L3440.3068570841624 875.8241076623995ZM3648.048542197932 841.161590539484L3668.4434070707575 841.161590539484L3668.4434070707575 891.1713164222087L3533.3529573408778 891.1713164222087L3533.3529573408778 873.7233490488893L3560.4585788957493 873.7233490488893L3560.4585788957493 764.4839011463681L3533.3529573408778 764.4839011463681L3533.3529573408778 747.0651109760142L3608.9802674272387 747.0651109760142L3608.9802674272387 764.4839011463681L3582.108063496089 764.4839011463681L3582.108063496089 873.7233490488893L3648.048542197932 873.7233490488893L3648.048542197932 841.161590539484ZM3854.5647847871533 747.0651109760142L3854.5647847871533 764.4839011463681L3827.459163232281 764.4839011463681L3827.459163232281 835.5012131641931Q3827.459163232281 852.1030416515155 3819.260369198999 865.437023406711Q3811.090752368682 878.7710051619065 3796.385442074112 886.3279007299495Q3781.6801317795416 893.9139735009579 3762.773304257951 893.9139735009579L3762.773304257951 893.9139735009579Q3743.42881869188 893.9139735009579 3728.72350839731 886.3279007299495Q3714.018198102739 878.7710051619065 3706.0528216931807 865.5537322185726Q3698.0582680806565 852.3072820722733 3698.0582680806565 835.5012131641931L3698.0582680806565 835.5012131641931L3698.0582680806565 764.4839011463681L3670.952646525784 764.4839011463681L3670.952646525784 747.0651109760142L3745.3253368846317 747.0651109760142L3745.3253368846317 764.4839011463681L3719.911993101754 764.4839011463681L3719.7077526809953 834.859314698954Q3719.7077526809953 846.6469046969823 3725.163889635529 855.9836096459159Q3730.6200265900616 865.3203145948493 3740.3943895834764 870.5722111286243Q3750.168752576891 875.8241076623995 3762.773304257951 875.8241076623995L3762.773304257951 875.8241076623995Q3775.1444383152884 875.8241076623995 3785.035510120564 870.5722111286243Q3794.8974047228758 865.3203145948493 3800.3535416774084 855.8669008340541Q3805.838855834907 846.413487073259 3805.838855834907 834.655074278196L3805.838855834907 834.655074278196L3805.6054382111834 764.4839011463681L3779.987854007547 764.4839011463681L3779.987854007547 747.0651109760142L3854.5647847871533 747.0651109760142ZM3863.8139581271907 747.0651109760142L4011.2755419144078 747.0651109760142L4011.2755419144078 794.3321797799897L3991.960233551302 794.3321797799897L3991.960233551302 764.4839011463681L3948.4570239298646 764.4839011463681L3948.4570239298646 873.7233490488893L3975.7668859054957 873.7233490488893L3975.7668859054957 891.1713164222087L3899.322614136103 891.1713164222087L3899.322614136103 873.7233490488893L3926.8367165324908 873.7233490488893L3926.8367165324908 764.4839011463681L3883.1292664902967 764.4839011463681L3883.1292664902967 794.3321797799897L3863.8139581271907 794.3321797799897L3863.8139581271907 747.0651109760142ZM4103.096199646575 764.4839011463681L4075.7863376709447 764.4839011463681L4075.7863376709447 873.7233490488893L4103.096199646575 873.7233490488893L4103.096199646575 891.1713164222087L4027.0312315157335 891.1713164222087L4027.0312315157335 873.7233490488893L4054.136853070606 873.7233490488893L4054.136853070606 764.4839011463681L4027.0312315157335 764.4839011463681L4027.0312315157335 747.0651109760142L4103.096199646575 747.0651109760142L4103.096199646575 764.4839011463681ZM4195.091920596535 893.9139735009579Q4174.084334461435 893.9139735009579 4156.957316320735 884.3438509283012Q4139.859475383 874.7737283556444 4130.085112389585 857.7634190268063Q4120.310749396171 840.7531096979682 4120.310749396171 819.1036250976288L4120.310749396171 819.1036250976288Q4120.310749396171 797.2790772794968 4130.085112389585 780.2395907476933Q4139.859475383 763.2292814188552 4156.957316320735 753.6883360491638Q4174.084334461435 744.1182134765071 4195.091920596535 744.1182134765071L4195.091920596535 744.1182134765071Q4215.895266310877 744.1182134765071 4233.0222844515765 753.6883360491638Q4250.149302592276 763.2292814188552 4259.894488382726 780.356299559555Q4269.668851376141 797.4833177002547 4269.668851376141 819.1036250976288L4269.668851376141 819.1036250976288Q4269.668851376141 840.7531096979682 4259.894488382726 857.7634190268063Q4250.149302592276 874.7737283556444 4233.0222844515765 884.3438509283012Q4215.895266310877 893.9139735009579 4195.091920596535 893.9139735009579L4195.091920596535 893.9139735009579ZM4195.091920596535 875.8241076623995Q4210.234888935586 875.8241076623995 4222.080833339545 868.588161326976Q4233.95595494647 861.3522149915526 4240.57918001962 848.4267140778728Q4247.202405092769 835.5012131641931 4247.202405092769 819.1036250976288L4247.202405092769 819.1036250976288Q4247.202405092769 802.5309738132719 4240.57918001962 789.6054728995922Q4233.95595494647 776.6799719859125 4222.080833339545 769.444025650489Q4210.234888935586 762.1789021121002 4195.091920596535 762.1789021121002L4195.091920596535 762.1789021121002Q4179.773889039691 762.1789021121002 4167.782058620905 769.444025650489Q4155.819405405084 776.6799719859125 4149.3128891437955 789.6930045084885Q4142.777195679542 802.7352142340299 4142.777195679542 819.1036250976288L4142.777195679542 819.1036250976288Q4142.777195679542 835.7054535849511 4149.3128891437955 848.6309544986308Q4155.819405405084 861.5564554123105 4167.694527012009 868.7048701388377Q4179.540471415968 875.8241076623995 4195.091920596535 875.8241076623995L4195.091920596535 875.8241076623995ZM4473.880094931094 747.0651109760142L4473.880094931094 764.4839011463681L4447.620612262219 764.4839011463681L4447.620612262219 892.4259361497217L4436.883401570946 892.6301765704795L4335.842747701707 777.7303512926675L4335.842747701707 873.7233490488893L4361.693749529067 873.7233490488893L4361.693749529067 891.1713164222087L4288.167198056216 891.1713164222087L4288.167198056216 873.7233490488893L4315.2728196110875 873.7233490488893L4315.2728196110875 764.4839011463681L4288.167198056216 764.4839011463681L4288.167198056216 747.0651109760142L4335.842747701707 747.0651109760142L4427.429987810151 853.5619017997863L4427.429987810151 764.4839011463681L4400.353543458244 764.4839011463681L4400.353543458244 747.0651109760142L4473.880094931094 747.0651109760142ZM4556.626642541017 809.6502113368336Q4584.374162561128 817.4405245286 4598.437574390459 827.9443175961501Q4612.530163422756 838.4481106637002 4612.530163422756 855.8669008340541L4612.530163422756 855.8669008340541Q4612.530163422756 867.2168327876013 4606.315419191123 875.940816474261Q4600.129852162454 884.6648001609208 4589.188401050422 889.2747982294567Q4578.2761271413565 893.9139735009579 4564.621196153542 893.9139735009579L4564.621196153542 893.9139735009579Q4549.711645438213 893.9139735009579 4536.260954871156 887.6116976604279Q4522.810264304098 881.3094218198978 4511.460332350552 869.9594898663506L4511.460332350552 869.9594898663506L4511.460332350552 890.9670760014508L4492.349264408203 890.9670760014508L4492.349264408203 842.4453874699624L4504.545335247747 841.8034890047231Q4515.661849577572 857.9676594475642 4531.65095680262 867.2168327876013Q4547.610886824703 876.4660061276386 4563.366576426029 876.4660061276386L4563.366576426029 876.4660061276386Q4575.124989221092 876.4660061276386 4582.594353180238 871.4183500146214Q4590.03453993642 866.3706939016042 4590.03453993642 857.7634190268063L4590.03453993642 857.7634190268063Q4590.03453993642 848.3100052660112 4579.53074686887 841.4825397721036Q4569.026953801319 834.655074278196 4543.817850439199 828.148558016908L4543.817850439199 828.148558016908Q4517.5583677703235 821.2043837111388 4505.391474133745 809.9711605694533Q4493.1954032942 798.7379374277677 4493.1954032942 782.3403493612034L4493.1954032942 782.3403493612034Q4493.1954032942 771.0195946106215 4499.380970322868 762.2956109239619Q4505.595714554503 753.5716272373022 4516.099507622052 748.8449203569046Q4526.603300689603 744.1182134765071 4539.0036119499055 744.1182134765071L4539.0036119499055 744.1182134765071Q4568.180814915322 744.1182134765071 4586.270680753881 765.5342804531232L4586.270680753881 765.5342804531232L4586.270680753881 747.0651109760142L4605.381748696229 747.0651109760142L4605.381748696229 794.9449010422635L4593.623335901166 795.5867995075027Q4584.782643402644 778.7807305994224 4571.973851300827 770.1734557246244Q4559.165059199008 761.5661808498264 4543.817850439199 761.5661808498264L4543.817850439199 761.5661808498264Q4531.417539178897 761.5661808498264 4523.539694378233 766.9056089924977Q4515.661849577572 772.2742143381345 4515.661849577572 781.2899700544483L4515.661849577572 781.2899700544483Q4515.661849577572 790.5391433944856 4525.231972150229 797.1623684676351Q4534.802094722885 803.7855935407848 4556.626642541017 809.6502113368336L4556.626642541017 809.6502113368336Z " fill="darkgreen" transform="matrix(0.19834052581419606,0,0,0.19834052581419603,-39.851675207970146,137.53567846555427)"/></g></svg>